<?xml version="1.0" encoding="utf-8"?>
<!-- Generator: Adobe Illustrator 16.0.0, SVG Export Plug-In . SVG Version: 6.00 Build 0)  -->
<!DOCTYPE svg PUBLIC "-//W3C//DTD SVG 1.1//EN" "http://www.w3.org/Graphics/SVG/1.1/DTD/svg11.dtd">
<svg version="1.1" id="Layer_1" xmlns="http://www.w3.org/2000/svg" xmlns:xlink="http://www.w3.org/1999/xlink" x="0px" y="0px"
	 width="249.854px" height="53.407px" viewBox="0 0 249.854 53.407" enable-background="new 0 0 249.854 53.407"
	 xml:space="preserve">
<polygon fill="#EA7656" points="56.756,43.158 33.115,43.158 33.115,5.396 56.218,5.396 56.218,7.877 35.917,7.877 35.917,22.93 
	50.833,22.93 50.833,25.409 35.917,25.409 35.917,40.677 56.756,40.677 "/>
<polygon fill="#EA7656" points="93.534,43.158 66.824,12.031 66.824,43.158 64.026,43.158 64.026,5.396 64.511,5.396 91.219,36.631 
	91.219,5.396 94.02,5.396 94.02,43.158 "/>
<polygon fill="#EA7656" points="161.061,43.158 137.42,43.158 137.42,5.396 160.521,5.396 160.521,7.877 140.221,7.877 
	140.221,22.93 155.137,22.93 155.137,25.409 140.221,25.409 140.221,40.677 161.061,40.677 "/>
<rect x="202.522" fill="#729ED3" width="2.422" height="53.407"/>
<path fill="#7961A9" d="M236.608,36.9c-2.101,4.531-6.464,6.637-10.771,6.637c-6.032,0-13.354-4.748-13.354-14.406
	c0-9.6,7.375-14.348,13.354-14.348c4.307,0,8.67,2.104,10.771,6.527v-6.205h2.69v28.053h-2.69V36.9z M236.717,29.131
	c0-8.252-5.924-11.921-10.717-11.921s-10.824,3.775-10.824,11.921c0,8.202,6.031,11.977,10.824,11.977
	S236.717,37.172,236.717,29.131"/>
<path fill="#7961A9" d="M249.854,8.094h-2.747V5.396h2.747V8.094z M249.854,43.158h-2.747V15.105h2.747V43.158z"/>
<path fill="#EA7656" d="M13.731,28.269c6.946-0.754,11.147-4.909,11.147-11.491c0-6.796-5.169-11.382-13.571-11.382H0v2.429h0.672
	h10.744c6.947,0,10.769,3.453,10.769,8.953c0,6.045-3.822,9.171-10.769,9.171H0.082v-0.001H0v17.211h2.746V28.379h8.077
	l11.848,14.779h3.446L13.731,28.269z"/>
<path fill="#EA7656" d="M181.791,28.269c6.945-0.754,11.146-4.909,11.146-11.491c0-6.796-5.17-11.382-13.568-11.382h-11.31v2.429
	h0.072h11.344c6.946,0,10.769,3.453,10.769,8.953c0,6.045-3.822,9.171-10.769,9.171h-11.413v0.001h-0.003v17.209h2.745V28.379h8.078
	l11.847,14.779h3.446L181.791,28.269z"/>
<path fill="#EA7656" d="M112.058,5.396h-9.962v2.432h0.099V7.823h9.863c9.801,0,15.94,7.122,15.94,16.562
	c0,9.227-6.139,16.346-15.94,16.346h-9.863v-0.001h-0.099v2.43h9.962c10.985,0,18.632-8.362,18.632-18.774
	C130.689,13.758,123.042,5.396,112.058,5.396"/>
</svg>
